<svg xmlns="http://www.w3.org/2000/svg" data-name="Layer 1" viewBox="0 0 100 125" x="0px" y="0px"><title>Artboard 29</title><path d="M63.31,77.79a11.26,11.26,0,0,0,11.3-10.71c0-.05,0-.1,0-.15l11-12.32a6.63,6.63,0,0,1,9.11-.89,6.45,6.45,0,0,1,.75,9.22L73.55,88A15.35,15.35,0,0,1,62,93.29H29.07L23.36,99,3,79.13l14.6-14.52A22.27,22.27,0,0,1,40.63,59.4l3.21,1.12H63.57a6.22,6.22,0,0,1,6.21,6.41,6.39,6.39,0,0,1-6.48,6H51.46a2.41,2.41,0,0,0,0,4.83ZM73.49,22.45A1.63,1.63,0,0,0,75,23.51H85.43a1.64,1.64,0,0,0,1.59-2A26.92,26.92,0,0,0,66.55,1a1.64,1.64,0,0,0-2,1.59V13a1.63,1.63,0,0,0,1.06,1.52A13.64,13.64,0,0,1,73.49,22.45ZM55,1A26.83,26.83,0,0,0,38.2,41.73a1.64,1.64,0,0,0,2.54.29l7.36-7.36a1.64,1.64,0,0,0,.32-1.84A13.57,13.57,0,0,1,56,14.56,1.63,1.63,0,0,0,57.05,13V2.63A1.64,1.64,0,0,0,55,1Zm.19,38.6A1.64,1.64,0,0,0,53.4,40L46,47.32a1.64,1.64,0,0,0,.29,2.54A26.83,26.83,0,0,0,87,33a1.64,1.64,0,0,0-1.59-2H75a1.63,1.63,0,0,0-1.52,1.05,13.57,13.57,0,0,1-18.26,7.58Z"/><text x="0" y="115" fill="#000000" font-size="5px" font-weight="bold" font-family="'Helvetica Neue', Helvetica, Arial-Unicode, Arial, Sans-serif">Created by Gregor Cresnar</text><text x="0" y="120" fill="#000000" font-size="5px" font-weight="bold" font-family="'Helvetica Neue', Helvetica, Arial-Unicode, Arial, Sans-serif">from the Noun Project</text></svg>