<?xml version="1.0" encoding="UTF-8"?>
<svg width="250px" height="250px" viewBox="0 0 250 250" version="1.1" xmlns="http://www.w3.org/2000/svg" xmlns:xlink="http://www.w3.org/1999/xlink">
    <!-- Generator: Sketch 44 (41411) - http://www.bohemiancoding.com/sketch -->
    <title>technical</title>
    <desc>Created with Sketch.</desc>
    <defs></defs>
    <g id="Page-1" stroke="none" stroke-width="1" fill="none" fill-rule="evenodd">
        <g id="technical">
            <circle id="Oval" fill="#43B0D9" cx="125" cy="125" r="125"></circle>
            <path d="M94.4276366,89.6191545 L101.512019,90.8683332 C102.343415,93.9529318 103.574505,96.9156025 105.173995,99.6810317 L101.049995,105.567572 C99.5252701,107.730802 99.778037,110.677342 101.648916,112.549283 L105.892701,116.793068 C107.764641,118.663946 110.711181,118.916713 112.874411,117.391989 L118.760952,113.267988 C121.526641,114.866951 124.489241,116.098012 127.57365,116.929964 L128.822829,124.014347 C129.279586,126.615438 131.538006,128.513088 134.178896,128.514812 L140.253669,128.514812 C142.894559,128.513088 145.152979,126.615438 145.609736,124.014347 L146.858915,116.929964 C149.937546,116.09698 152.894357,114.865935 155.654501,113.267988 L161.541042,117.391989 C163.704272,118.916713 166.650812,118.663946 168.522752,116.793068 L172.766537,112.549283 C174.637416,110.677342 174.890183,107.730802 173.365458,105.567572 L169.17301,99.6810317 C170.748401,96.911949 171.956405,93.9494633 172.766537,90.8683332 L179.85092,89.6191545 C182.452011,89.1623973 184.349661,86.903977 184.351385,84.2630873 L184.351385,78.2567627 C184.349661,75.6158729 182.452011,73.3574526 179.85092,72.9006954 L172.766537,71.6515168 C171.934771,68.5670447 170.7037,65.6044212 169.104561,62.8388183 L173.228562,56.952278 C174.789486,54.8213594 174.594653,51.8772111 172.766537,49.9705673 L168.454304,45.7267824 C166.586738,43.850504 163.639855,43.5904849 161.472593,45.1107491 L155.654501,49.2347498 C152.889072,47.6352597 149.926401,46.4041693 146.841803,45.5727741 L145.592624,38.4883912 C145.129664,35.9004447 142.882685,34.0135586 140.253669,34.0050378 L134.161784,34.0050378 C131.520894,34.0067619 129.262474,35.9044122 128.805717,38.5055032 L127.556538,45.5898861 C124.472904,46.4162457 121.510315,47.6415494 118.74384,49.2347498 L112.874411,45.1107491 C110.70715,43.5904849 107.760267,43.850504 105.892701,45.7267824 L101.648916,49.9705673 C99.778037,51.8425079 99.5252701,54.7890479 101.049995,56.952278 L105.173995,62.8388183 C103.568742,65.6034601 102.331894,68.5661421 101.494907,71.6515168 L94.4105246,72.9006954 C91.8094336,73.3574526 89.9117833,75.6158729 89.9100591,78.2567627 L89.9100591,84.2630873 C89.9132347,86.9094109 91.8197445,89.1697804 94.4276366,89.6191545 Z M137.207726,61.0420545 C148.362296,61.0703897 157.384554,70.1309165 157.365676,81.2855061 C157.346798,92.4400957 148.293923,101.470032 137.139322,101.460611 C125.98472,101.45119 116.947112,92.4059746 116.947076,81.251369 C116.965939,70.091216 126.013337,61.0514724 137.173502,61.0420545 L137.207726,61.0420545 Z M80.5326635,201.70299 L46.5994962,168.642536 L70.8985872,144.497454 C80.9691274,134.494958 95.8693112,131.12547 109.263772,135.821652 L114.585615,137.686863 L147.440724,137.686863 C150.233344,137.684811 152.906316,138.820391 154.843518,140.831853 C156.780721,142.843315 157.814997,145.557094 157.707945,148.347662 C157.387268,154.041452 152.629439,158.466988 146.927363,158.375315 L127.282746,158.375315 C125.061827,158.375315 123.261417,160.175725 123.261417,162.396643 C123.261417,164.617562 125.061827,166.417972 127.282746,166.417972 L146.995811,166.417972 C156.984379,166.42477 165.238949,158.628371 165.801938,148.655678 C165.801938,148.655678 165.801938,148.484558 165.801938,148.398998 L184.043369,127.864555 C187.899364,123.411793 194.572394,122.771604 199.204633,126.410032 C201.455575,128.258842 202.859576,130.942212 203.095069,133.845551 C203.330562,136.748891 202.377371,139.623455 200.453811,141.810864 L164.039399,183.444447 C159.18935,189.008766 152.169727,192.203474 144.788358,192.20581 L90.0298434,192.20581 L80.5326635,201.70299 Z M126.410032,81.251369 C126.410032,76.8979515 129.032467,72.9731995 133.0545,71.3072188 C137.076534,69.641238 141.706094,70.5621149 144.784425,73.6404459 C147.862756,76.7187769 148.783633,81.3483375 147.117653,85.3703708 C145.451672,89.3924041 141.52692,92.0148396 137.173502,92.0148396 C131.229002,92.0148396 126.410032,87.1958696 126.410032,81.251369 L126.410032,81.251369 Z" id="Shape" fill="#FFFFFF" fill-rule="nonzero"></path>
        </g>
    </g>
</svg>